<svg xmlns="http://www.w3.org/2000/svg" width="512" height="512" viewBox="0 0 512 512">
<defs>
  <radialGradient id="bg" cx="50%" cy="38%" r="75%">
    <stop offset="0%" stop-color="#241a4d"/><stop offset="55%" stop-color="#171233"/><stop offset="100%" stop-color="#0f0d20"/>
  </radialGradient>
  <linearGradient id="gb" x1="0%" y1="100%" x2="100%" y2="0%">
    <stop offset="0%" stop-color="#4ade80"/><stop offset="100%" stop-color="#60a5fa"/>
  </linearGradient>
  <pattern id="dots" width="26" height="26" patternUnits="userSpaceOnUse">
    <circle cx="3" cy="3" r="1.4" fill="#ffffff" opacity="0.05"/>
  </pattern>
  <filter id="glow" x="-60%" y="-60%" width="220%" height="220%">
    <feGaussianBlur stdDeviation="9" result="b"/><feMerge><feMergeNode in="b"/><feMergeNode in="SourceGraphic"/></feMerge>
  </filter>
  
</defs>
<clipPath id="round"><rect width="512" height="512" rx="115"/></clipPath>
<g clip-path="url(#round)">
  <rect width="512" height="512" fill="url(#bg)"/>
  <rect width="512" height="512" fill="url(#dots)"/>
  
  <path d="M -30,262 C 70,262 90,214 160,208" fill="none" stroke="#60a5fa" stroke-width="12" stroke-linecap="round" opacity="0.5"/>
  <path d="M 352,208 C 430,206 460,246 545,246" fill="none" stroke="#4ade80" stroke-width="12" stroke-linecap="round" opacity="0.5"/>
  <path d="M -30,330 C 120,330 150,306 200,300 M 318,296 C 400,292 440,318 545,318" fill="none" stroke="#8b90a8" stroke-width="7" stroke-linecap="round" opacity="0.4"/>
  <circle cx="256" cy="208" r="112" fill="#171233" stroke="url(#gb)" stroke-width="15" filter="url(#glow)"/>
  <circle cx="256" cy="208" r="86" fill="none" stroke="#f5f5f7" stroke-width="2.5" opacity="0.25" stroke-dasharray="4 9"/>
  <text x="256" y="243" text-anchor="middle" font-family="Poppins" font-weight="700" font-size="99" fill="#f5f5f7">Kč</text>
  <circle cx="545" cy="246" r="10" fill="#4ade80" opacity="0.9"/>
  <circle cx="176" cy="330" r="7" fill="#8b90a8" opacity="0.6"/>
  <text x="256" y="452" text-anchor="middle" font-family="Poppins" font-weight="700" font-size="57"><tspan fill="#f5f5f7">Finance</tspan><tspan fill="#4ade80">Flow</tspan></text>
</g>
</svg>